<mxfile host="app.diagrams.net" modified="2022-04-14T08:14:47.069Z" agent="5.0 (Macintosh; Intel Mac OS X 10_13_6) AppleWebKit/537.36 (KHTML, like Gecko) Chrome/100.0.4896.75 Safari/537.36" etag="WAY2TDep7tPQ5zjnW0z7" version="17.4.4" type="github">
  <diagram name="Page-1" id="e7010aeb-78dc-98c9-4316-6516fd28bfe3">
    <mxGraphModel dx="3173.5" dy="891" grid="1" gridSize="10" guides="1" tooltips="1" connect="1" arrows="1" fold="1" page="1" pageScale="1.5" pageWidth="1169" pageHeight="826" background="none" math="0" shadow="0">
      <root>
        <mxCell id="0" style=";html=1;" />
        <mxCell id="1" style=";html=1;" parent="0" />
        <mxCell id="260548aa2b6a5931-6" value="&lt;table border=&quot;1&quot; width=&quot;100%&quot; style=&quot;width: 100% ; height: 100% ; border-collapse: collapse&quot;&gt;&lt;tbody&gt;&lt;tr align=&quot;center&quot;&gt;&lt;th width=&quot;4%&quot;&gt;&lt;font face=&quot;Arial&quot;&gt;#&lt;br&gt;&lt;/font&gt;&lt;/th&gt;&lt;th width=&quot;12%&quot;&gt;&lt;font face=&quot;Arial&quot;&gt;Nature of Fault&lt;/font&gt;&lt;/th&gt;&lt;th width=&quot;12%&quot; bgcolor=&quot;#FE4F4F&quot;&gt;&lt;font face=&quot;Arial&quot;&gt;Monday&lt;br&gt;&lt;/font&gt;&lt;/th&gt;&lt;th width=&quot;12%&quot; bgcolor=&quot;#FF954F&quot;&gt;&lt;font face=&quot;Arial&quot;&gt;Field technician&lt;br&gt;&lt;/font&gt;&lt;/th&gt;&lt;th width=&quot;12%&quot; bgcolor=&quot;#FFFF4F&quot;&gt;&lt;font face=&quot;Arial&quot;&gt;Head of Networking&amp;nbsp;&lt;br&gt;&lt;/font&gt;&lt;/th&gt;&lt;th width=&quot;12%&quot; bgcolor=&quot;#4FDB4F&quot;&gt;&lt;font face=&quot;Arial&quot;&gt;Head of NOC&lt;br&gt;&lt;/font&gt;&lt;/th&gt;&lt;th width=&quot;12%&quot; bgcolor=&quot;#71DBFE&quot;&gt;&lt;font face=&quot;Arial&quot;&gt;NOC&lt;/font&gt;&lt;/th&gt;&lt;th width=&quot;12%&quot; bgcolor=&quot;#4F4FDB&quot;&gt;&lt;font face=&quot;Arial&quot;&gt;CE Team lead/Manager&amp;nbsp;&lt;br&gt;&lt;/font&gt;&lt;/th&gt;&lt;th width=&quot;12%&quot; bgcolor=&quot;#964FB8&quot;&gt;&lt;font face=&quot;Arial&quot;&gt;CE Support&lt;/font&gt;&lt;/th&gt;&lt;/tr&gt;&lt;tr align=&quot;left&quot;&gt;&lt;td style=&quot;text-align: center&quot;&gt;1&lt;/td&gt;&lt;td&gt;&lt;br&gt;No PPP&lt;/td&gt;&lt;td&gt;&lt;/td&gt;&lt;td&gt;&lt;/td&gt;&lt;td&gt;&lt;/td&gt;&lt;td&gt;&lt;/td&gt;&lt;td&gt;&lt;/td&gt;&lt;td&gt;&lt;/td&gt;&lt;td&gt;1. Advise on disconnecting then returning the cables to the exact ports&lt;br&gt;2. If ppp doesnt come up try moving one cable to another port&amp;nbsp;&lt;br&gt;3. If ppp doesnt restore then add to maintenance list&amp;nbsp;&lt;/td&gt;&lt;/tr&gt;&lt;tr align=&quot;left&quot;&gt;&lt;td style=&quot;text-align: center&quot;&gt;2&lt;/td&gt;&lt;td&gt;Slow Speed with speed test&lt;/td&gt;&lt;td&gt;&lt;/td&gt;&lt;td&gt;&lt;/td&gt;&lt;td&gt;&lt;/td&gt;&lt;td&gt;&lt;/td&gt;&lt;td&gt;1. NOC will check the current sector is ok&lt;br&gt;2. The client will be moved to best sector&amp;nbsp;&lt;br&gt;3. If alignment is the issue then the fault will be escalated to field techs&lt;/td&gt;&lt;td&gt;&lt;/td&gt;&lt;td&gt;1. Prompt the client to run a speed test.&lt;br&gt;2. Check if the alignment is good&lt;br&gt;3. Agent can check if the client can be moved to another sector&lt;br&gt;4. Escalate the fault with speed test results and specify the sector&amp;nbsp;&lt;/td&gt;&lt;/tr&gt;&lt;tr align=&quot;left&quot;&gt;&lt;td style=&quot;text-align: center&quot;&gt;3&lt;/td&gt;&lt;td&gt;Connection on and off (high uptime)&lt;/td&gt;&lt;td&gt;&lt;/td&gt;&lt;td&gt;&lt;/td&gt;&lt;td&gt;&lt;/td&gt;&lt;td&gt;&lt;/td&gt;&lt;td&gt;&lt;/td&gt;&lt;td&gt;1. Team lead can check on how much traffic the client has used for the reported intermittent period&lt;br&gt;2. Tools like Air control has this information for more detailed reporting and data collection&amp;nbsp;&lt;/td&gt;&lt;td&gt;1. Compare the uptime of the lightbeam with the sector&#39;s&lt;br&gt;2. If lightbeam has higher uptime reboot the LIGHTBEAM and monitor the connection&lt;br&gt;3. It is important to prompt the customer not to reboot unless given the instruction to do so&lt;/td&gt;&lt;/tr&gt;&lt;tr align=&quot;left&quot;&gt;&lt;td style=&quot;text-align: center&quot;&gt;4&lt;/td&gt;&lt;td&gt;Connection on and off (low uptime)&lt;/td&gt;&lt;td&gt;&lt;/td&gt;&lt;td&gt;&lt;/td&gt;&lt;td&gt;&lt;/td&gt;&lt;td&gt;&lt;/td&gt;&lt;td&gt;1. NOC will assess if the fault is not sector performance related&lt;br&gt;2. Troubleshooting on sector frequency and lightbeam will be done&lt;br&gt;3. If the issue is diagnosed to be on the physical device then field team will resolve&amp;nbsp;&lt;/td&gt;&lt;td&gt;&lt;/td&gt;&lt;td&gt;1. Agent should prompt for no reboot&amp;nbsp;&lt;br&gt;2. Escalate with details containing capacity and sector info&lt;/td&gt;&lt;/tr&gt;&lt;tr align=&quot;left&quot;&gt;&lt;td style=&quot;text-align: center&quot;&gt;5&lt;/td&gt;&lt;td&gt;Password Change (cant access light beam and router)&lt;/td&gt;&lt;td&gt;&lt;/td&gt;&lt;td&gt;&lt;/td&gt;&lt;td&gt;&lt;/td&gt;&lt;td&gt;&lt;/td&gt;&lt;td&gt;1 f the device is TP link ensure that the lightbeam has good capacity by either improving the sector performance&amp;nbsp;&lt;/td&gt;&lt;td&gt;&lt;/td&gt;&lt;td&gt;1. ping the lightbeam ip address: If successful escalate to NOC to check if the alignment ok&lt;br&gt;this can be caused by slow speed or bad capacity on the overall connection&lt;br&gt;2. MAC telnet to the client&#39;s&amp;nbsp; Mikrotik and change change password&amp;nbsp;&lt;br&gt;3. Please ensure that there is a ppp session for the client&amp;nbsp;&lt;br&gt;&lt;br&gt;&lt;/td&gt;&lt;/tr&gt;&lt;tr align=&quot;left&quot;&gt;&lt;td style=&quot;text-align: center&quot;&gt;6&lt;/td&gt;&lt;td&gt;Same fault reported from the same Node and/or sector&amp;nbsp;&lt;/td&gt;&lt;td&gt;&lt;/td&gt;&lt;td&gt;&lt;/td&gt;&lt;td&gt;&lt;/td&gt;&lt;td&gt;1. Resolve and way forward will be provided by the Head&lt;/td&gt;&lt;td&gt;1.NOC will check the distribution layer of the network and identify the fault and apply resolution and recommendation&amp;nbsp;&lt;br&gt;2. If the fix applied doesnt resolve the fault within 20 minutes max then escalate to Head to check further&amp;nbsp;&lt;br&gt;&lt;br&gt;&lt;/td&gt;&lt;td&gt;1. Team Lead can relay a broadcast message to the clients depending on the nature of the fault&amp;nbsp;&lt;br&gt;2. Confirm with Head Of NOC if the message can sent to clients&amp;nbsp;&lt;/td&gt;&lt;td&gt;1. Identify the region, sector or node where clients are reporting the same issue&lt;/td&gt;&lt;/tr&gt;&lt;tr align=&quot;left&quot;&gt;&lt;td style=&quot;text-align: center&quot;&gt;7&lt;/td&gt;&lt;td&gt;Winbox inaccessibility&amp;nbsp;&lt;/td&gt;&lt;td&gt;&lt;/td&gt;&lt;td&gt;&lt;/td&gt;&lt;td&gt;&lt;/td&gt;&lt;td&gt;1. The Core Network Team will resolve&lt;/td&gt;&lt;td&gt;&lt;/td&gt;&lt;td&gt;&lt;/td&gt;&lt;td&gt;&lt;/td&gt;&lt;/tr&gt;&lt;tr align=&quot;left&quot;&gt;&lt;td style=&quot;text-align: center&quot;&gt;8&lt;/td&gt;&lt;td&gt;Client unable to access a specific website&lt;/td&gt;&lt;td&gt;&lt;/td&gt;&lt;td&gt;&lt;/td&gt;&lt;td&gt;&lt;/td&gt;&lt;td&gt;1. The core networking team will resolve and log a ticket with a 3rd party if needed&amp;nbsp;&lt;/td&gt;&lt;td&gt;&lt;/td&gt;&lt;td&gt;&lt;/td&gt;&lt;td&gt;1. Get the website or URL from the client and the error recorded when the site is visited&lt;/td&gt;&lt;/tr&gt;&lt;tr align=&quot;left&quot;&gt;&lt;td style=&quot;text-align: center&quot;&gt;9&lt;/td&gt;&lt;td&gt;One particular app not working on client&#39;s device e.g(showmax)&amp;nbsp;&lt;/td&gt;&lt;td&gt;&lt;/td&gt;&lt;td&gt;&lt;/td&gt;&lt;td&gt;&lt;/td&gt;&lt;td&gt;&lt;/td&gt;&lt;td&gt;&lt;/td&gt;&lt;td&gt;&lt;/td&gt;&lt;td&gt;1. Client can be advised to upgrade the speed in order to be able to stream properly&lt;br&gt;2. Client can be advised to reduce the streaming video quality used on the reported app&amp;nbsp;&lt;/td&gt;&lt;/tr&gt;&lt;tr&gt;&lt;td style=&quot;text-align: center&quot;&gt;10&lt;/td&gt;&lt;td style=&quot;text-align: left&quot;&gt;Discounts and other Admin related&amp;nbsp;&lt;/td&gt;&lt;td&gt;&lt;/td&gt;&lt;td&gt;&lt;/td&gt;&lt;td&gt;&lt;/td&gt;&lt;td&gt;&lt;/td&gt;&lt;td&gt;&lt;/td&gt;&lt;td&gt;&lt;/td&gt;&lt;td style=&quot;text-align: left&quot;&gt;1. CE can advise the client further&amp;nbsp;&lt;/td&gt;&lt;/tr&gt;&lt;tr align=&quot;left&quot;&gt;&lt;td style=&quot;text-align: center&quot;&gt;111&lt;/td&gt;&lt;td&gt;Cancellation&amp;nbsp;&lt;/td&gt;&lt;td&gt;&lt;/td&gt;&lt;td&gt;&lt;/td&gt;&lt;td&gt;&lt;/td&gt;&lt;td&gt;&lt;/td&gt;&lt;td&gt;&lt;/td&gt;&lt;td&gt;&lt;/td&gt;&lt;td&gt;1. CE will handle&amp;nbsp;&lt;/td&gt;&lt;/tr&gt;&lt;tr align=&quot;left&quot;&gt;&lt;td style=&quot;text-align: center&quot;&gt;12&lt;/td&gt;&lt;td&gt;&lt;/td&gt;&lt;td&gt;&lt;/td&gt;&lt;td&gt;&lt;/td&gt;&lt;td&gt;&lt;/td&gt;&lt;td&gt;&lt;/td&gt;&lt;td&gt;&lt;/td&gt;&lt;td&gt;&lt;/td&gt;&lt;td&gt;&lt;/td&gt;&lt;/tr&gt;&lt;/tbody&gt;&lt;/table&gt;" style="text;html=1;overflow=fill;strokeColor=#000000;strokeWidth=2;fillColor=#ffffff;fontSize=18;fontColor=#000000;align=center;" parent="1" vertex="1">
          <mxGeometry x="-110" y="170" width="4510" height="840" as="geometry" />
        </mxCell>
        <mxCell id="260548aa2b6a5931-7" value="Escaltion Matrix" style="text;html=1;strokeColor=none;fillColor=none;align=center;verticalAlign=middle;whiteSpace=wrap;fontSize=36;fontColor=#000000;" parent="1" vertex="1">
          <mxGeometry x="430" y="90" width="970" height="40" as="geometry" />
        </mxCell>
      </root>
    </mxGraphModel>
  </diagram>
</mxfile>
